<svg width="192" height="45" viewBox="0 0 192 45" fill="none" xmlns="http://www.w3.org/2000/svg">
<rect x="0.9375" y="2.21582" width="40" height="40" rx="8" fill="#005AEB" style="fill:#005AEB;fill:color(display-p3 0.0000 0.3529 0.9216);fill-opacity:1;"/>
<path d="M32.952 26.804C33.1589 26.6518 33.322 26.4478 33.4248 26.2125C33.5277 25.9772 33.5666 25.719 33.5378 25.4638C33.5089 25.2087 33.4133 24.9656 33.2605 24.7593C33.1077 24.5529 32.9032 24.3904 32.6676 24.2883V22.2818L31.4945 22.7804V24.2883C31.2588 24.3904 31.0541 24.5528 30.9012 24.7593C30.7483 24.9657 30.6526 25.2088 30.6238 25.4641C30.5949 25.7193 30.6339 25.9777 30.7369 26.2131C30.8398 26.4484 31.003 26.6524 31.21 26.8045C31.0259 26.9398 30.8761 27.1164 30.7727 27.3202C30.6693 27.5239 30.6152 27.7491 30.6147 27.9776V29.4433C30.6147 29.5989 30.6765 29.7481 30.7865 29.8581C30.8965 29.9681 31.0457 30.0299 31.2012 30.0299H32.9608C33.1164 30.0299 33.2656 29.9681 33.3756 29.8581C33.4856 29.7481 33.5473 29.5989 33.5473 29.4433V27.977C33.5469 27.7485 33.4928 27.5233 33.3894 27.3196C33.286 27.1158 33.1362 26.9392 32.952 26.804Z" fill="white" style="fill:white;fill-opacity:1;"/>
<path d="M29.7349 23.5253V27.8656C29.7381 28.3701 29.61 28.8669 29.3632 29.307C29.1164 29.7471 28.7594 30.1154 28.3272 30.3759C26.0846 31.6857 23.5341 32.3759 20.937 32.3759C18.3399 32.3759 15.7894 31.6857 13.5468 30.3759C13.1146 30.1154 12.7576 29.7471 12.5108 29.307C12.264 28.8669 12.1359 28.3701 12.1391 27.8656V23.5253L19.3358 26.5693C19.8428 26.7823 20.3871 26.892 20.937 26.892C21.4869 26.892 22.0312 26.7823 22.5382 26.5693L29.7349 23.5253Z" fill="white" style="fill:white;fill-opacity:1;"/>
<path d="M33.8617 17.2653L22.0796 12.2798C21.7175 12.1275 21.3286 12.049 20.9358 12.049C20.543 12.049 20.1542 12.1275 19.7921 12.2798L8.00995 17.2653C7.69149 17.4 7.41978 17.6255 7.22874 17.9137C7.03771 18.2019 6.93584 18.5401 6.93584 18.8858C6.93584 19.2316 7.03771 19.5697 7.22874 19.8579C7.41978 20.1462 7.69149 20.3717 8.00995 20.5064L19.7921 25.4919C20.1541 25.6444 20.543 25.7229 20.9358 25.7229C21.3287 25.7229 21.7175 25.6444 22.0796 25.4919L33.8617 20.5064C34.1802 20.3717 34.4519 20.1462 34.6429 19.8579C34.834 19.5697 34.9358 19.2316 34.9358 18.8858C34.9358 18.5401 34.834 18.2019 34.6429 17.9137C34.4519 17.6255 34.1802 17.4 33.8617 17.2653Z" fill="white" style="fill:white;fill-opacity:1;"/>
<path d="M58.7455 18.4558C57.8175 18.4558 57.0015 18.2692 56.2975 17.8958C55.5935 17.5172 55.0442 16.9865 54.6495 16.3038C54.2548 15.6212 54.0575 14.8185 54.0575 13.8958V6.71182L56.2655 6.69582V13.8798C56.2655 14.2585 56.3295 14.6025 56.4575 14.9118C56.5855 15.2212 56.7615 15.4878 56.9855 15.7118C57.2148 15.9358 57.4788 16.1092 57.7775 16.2318C58.0815 16.3492 58.4042 16.4078 58.7455 16.4078C59.0975 16.4078 59.4228 16.3465 59.7215 16.2238C60.0255 16.1012 60.2895 15.9278 60.5135 15.7038C60.7375 15.4798 60.9108 15.2132 61.0335 14.9038C61.1615 14.5945 61.2255 14.2532 61.2255 13.8798V6.69582H63.4335V13.8958C63.4335 14.8185 63.2362 15.6212 62.8415 16.3038C62.4468 16.9865 61.8975 17.5172 61.1935 17.8958C60.4895 18.2692 59.6735 18.4558 58.7455 18.4558ZM65.6669 18.2158V6.69582H67.8749L72.8829 14.3758V6.69582H75.0909V18.2158H72.8829L67.8749 10.5358V18.2158H65.6669ZM77.4831 18.2158V6.69582H79.6591V18.2158H77.4831ZM84.5375 18.2158L81.0175 6.69582H83.2575L86.1375 16.1678L89.0655 6.69582H91.3055L87.7855 18.2158H84.5375ZM92.6706 18.2158V6.69582H94.8466V18.2158H92.6706ZM101.597 18.4558C100.744 18.4558 99.973 18.3065 99.285 18.0078C98.6023 17.7038 98.0397 17.2718 97.597 16.7118C97.1597 16.1465 96.8823 15.4745 96.765 14.6958L99.037 14.3598C99.197 15.0212 99.5277 15.5305 100.029 15.8878C100.53 16.2452 101.101 16.4238 101.741 16.4238C102.098 16.4238 102.445 16.3678 102.781 16.2558C103.117 16.1438 103.392 15.9785 103.605 15.7598C103.824 15.5412 103.933 15.2718 103.933 14.9518C103.933 14.8345 103.914 14.7225 103.877 14.6158C103.845 14.5038 103.789 14.3998 103.709 14.3038C103.629 14.2078 103.514 14.1172 103.365 14.0318C103.221 13.9465 103.037 13.8692 102.813 13.7998L99.821 12.9198C99.597 12.8558 99.3357 12.7652 99.037 12.6478C98.7437 12.5305 98.4583 12.3625 98.181 12.1438C97.9037 11.9252 97.6717 11.6372 97.485 11.2798C97.3037 10.9172 97.213 10.4612 97.213 9.91182C97.213 9.13849 97.4077 8.49582 97.797 7.98382C98.1863 7.47182 98.7063 7.09049 99.357 6.83982C100.008 6.58915 100.728 6.46649 101.517 6.47182C102.312 6.48249 103.021 6.61849 103.645 6.87982C104.269 7.14115 104.792 7.52249 105.213 8.02382C105.634 8.51982 105.938 9.12782 106.125 9.84782L103.773 10.2478C103.688 9.87449 103.53 9.55982 103.301 9.30382C103.072 9.04782 102.797 8.85315 102.477 8.71982C102.162 8.58649 101.832 8.51449 101.485 8.50382C101.144 8.49315 100.821 8.54115 100.517 8.64782C100.218 8.74915 99.973 8.89849 99.781 9.09582C99.5943 9.29315 99.501 9.52782 99.501 9.79982C99.501 10.0505 99.5783 10.2558 99.733 10.4158C99.8877 10.5705 100.082 10.6958 100.317 10.7918C100.552 10.8878 100.792 10.9678 101.037 11.0318L103.037 11.5758C103.336 11.6558 103.666 11.7625 104.029 11.8958C104.392 12.0238 104.738 12.2052 105.069 12.4398C105.405 12.6692 105.68 12.9732 105.893 13.3518C106.112 13.7305 106.221 14.2105 106.221 14.7918C106.221 15.4105 106.09 15.9518 105.829 16.4158C105.573 16.8745 105.226 17.2558 104.789 17.5598C104.352 17.8585 103.856 18.0825 103.301 18.2318C102.752 18.3812 102.184 18.4558 101.597 18.4558ZM108.139 18.2158V6.69582H110.315V18.2158H108.139ZM117.658 18.4558C116.506 18.4558 115.511 18.2052 114.674 17.7038C113.842 17.2025 113.199 16.5012 112.746 15.5998C112.298 14.6985 112.074 13.6505 112.074 12.4558C112.074 11.2612 112.298 10.2132 112.746 9.31182C113.199 8.41049 113.842 7.70915 114.674 7.20782C115.511 6.70649 116.506 6.45582 117.658 6.45582C118.81 6.45582 119.802 6.70649 120.634 7.20782C121.471 7.70915 122.114 8.41049 122.562 9.31182C123.015 10.2132 123.242 11.2612 123.242 12.4558C123.242 13.6505 123.015 14.6985 122.562 15.5998C122.114 16.5012 121.471 17.2025 120.634 17.7038C119.802 18.2052 118.81 18.4558 117.658 18.4558ZM117.658 16.4078C118.388 16.4185 118.996 16.2612 119.482 15.9358C119.967 15.6105 120.33 15.1492 120.57 14.5518C120.815 13.9545 120.938 13.2558 120.938 12.4558C120.938 11.6558 120.815 10.9625 120.57 10.3758C120.33 9.78915 119.967 9.33315 119.482 9.00782C118.996 8.68249 118.388 8.51449 117.658 8.50382C116.927 8.49315 116.319 8.65049 115.834 8.97582C115.348 9.30115 114.983 9.76249 114.738 10.3598C114.498 10.9572 114.378 11.6558 114.378 12.4558C114.378 13.2558 114.498 13.9492 114.738 14.5358C114.983 15.1225 115.348 15.5785 115.834 15.9038C116.319 16.2292 116.927 16.3972 117.658 16.4078ZM124.839 18.2158V6.69582H127.047L132.055 14.3758V6.69582H134.263V18.2158H132.055L127.047 10.5358V18.2158H124.839Z" fill="#F5F5F5" style="fill:#F5F5F5;fill:color(display-p3 0.9608 0.9608 0.9608);fill-opacity:1;"/>
<path d="M53.9935 40.2158V31.2758H54.9535V40.2158H53.9935ZM59.8358 40.3598C59.2358 40.3598 58.6958 40.2158 58.2158 39.9278C57.7358 39.6318 57.3558 39.2318 57.0758 38.7278C56.8038 38.2158 56.6678 37.6398 56.6678 36.9998C56.6678 36.3518 56.8038 35.7758 57.0758 35.2718C57.3558 34.7678 57.7318 34.3718 58.2038 34.0838C58.6838 33.7878 59.2278 33.6398 59.8358 33.6398C60.3878 33.6398 60.8798 33.7598 61.3118 33.9998C61.7438 34.2398 62.0838 34.5638 62.3318 34.9718L62.1878 35.2238V31.1318H63.0878V40.2158H62.1878V38.7758L62.3318 38.9078C62.1078 39.3718 61.7718 39.7318 61.3238 39.9878C60.8838 40.2358 60.3878 40.3598 59.8358 40.3598ZM59.8838 39.4598C60.3158 39.4598 60.7038 39.3518 61.0478 39.1358C61.3998 38.9198 61.6758 38.6278 61.8758 38.2598C62.0838 37.8838 62.1878 37.4638 62.1878 36.9998C62.1878 36.5358 62.0838 36.1198 61.8758 35.7518C61.6758 35.3758 61.3998 35.0798 61.0478 34.8638C60.7038 34.6478 60.3158 34.5398 59.8838 34.5398C59.4598 34.5398 59.0758 34.6478 58.7318 34.8638C58.3878 35.0798 58.1158 35.3718 57.9158 35.7398C57.7238 36.1078 57.6278 36.5278 57.6278 36.9998C57.6278 37.4638 57.7238 37.8838 57.9158 38.2598C58.1158 38.6278 58.3838 38.9198 58.7198 39.1358C59.0638 39.3518 59.4518 39.4598 59.8838 39.4598ZM67.8637 40.3598C67.2637 40.3598 66.7197 40.2158 66.2317 39.9278C65.7517 39.6318 65.3717 39.2278 65.0917 38.7158C64.8117 38.2038 64.6717 37.6238 64.6717 36.9758C64.6717 36.3278 64.8077 35.7558 65.0797 35.2598C65.3517 34.7558 65.7197 34.3598 66.1837 34.0718C66.6557 33.7838 67.1837 33.6398 67.7677 33.6398C68.2317 33.6398 68.6437 33.7278 69.0037 33.9038C69.3717 34.0718 69.6837 34.3038 69.9397 34.5998C70.1957 34.8878 70.3917 35.2158 70.5277 35.5838C70.6637 35.9438 70.7317 36.3158 70.7317 36.6998C70.7317 36.7798 70.7277 36.8718 70.7197 36.9758C70.7117 37.0718 70.6997 37.1718 70.6837 37.2758H65.2477V36.4358H70.1677L69.7357 36.7958C69.8077 36.3558 69.7557 35.9638 69.5797 35.6198C69.4117 35.2678 69.1677 34.9918 68.8477 34.7918C68.5277 34.5838 68.1677 34.4798 67.7677 34.4798C67.3677 34.4798 66.9957 34.5838 66.6517 34.7918C66.3157 34.9998 66.0517 35.2918 65.8597 35.6678C65.6677 36.0358 65.5917 36.4758 65.6317 36.9878C65.5917 37.4998 65.6717 37.9478 65.8717 38.3318C66.0797 38.7078 66.3597 38.9998 66.7117 39.2078C67.0717 39.4158 67.4557 39.5198 67.8637 39.5198C68.3357 39.5198 68.7317 39.4078 69.0517 39.1838C69.3717 38.9598 69.6317 38.6798 69.8317 38.3438L70.5997 38.7518C70.4717 39.0398 70.2757 39.3078 70.0117 39.5558C69.7477 39.7958 69.4317 39.9918 69.0637 40.1438C68.7037 40.2878 68.3037 40.3598 67.8637 40.3598ZM74.0613 40.3598C73.6533 40.3598 73.2893 40.2838 72.9693 40.1318C72.6493 39.9718 72.3973 39.7558 72.2133 39.4838C72.0293 39.2118 71.9373 38.8998 71.9373 38.5478C71.9373 38.2118 72.0093 37.9078 72.1533 37.6358C72.2973 37.3558 72.5213 37.1198 72.8253 36.9278C73.1293 36.7358 73.5173 36.5998 73.9893 36.5198L76.5093 36.0998V36.9158L74.2053 37.2998C73.7413 37.3798 73.4053 37.5278 73.1973 37.7438C72.9973 37.9598 72.8973 38.2158 72.8973 38.5118C72.8973 38.7998 73.0093 39.0438 73.2333 39.2438C73.4653 39.4438 73.7613 39.5438 74.1213 39.5438C74.5613 39.5438 74.9453 39.4518 75.2733 39.2678C75.6013 39.0758 75.8573 38.8198 76.0413 38.4998C76.2253 38.1798 76.3173 37.8238 76.3173 37.4318V35.7998C76.3173 35.4158 76.1773 35.1038 75.8973 34.8638C75.6173 34.6238 75.2533 34.5038 74.8053 34.5038C74.4133 34.5038 74.0693 34.6038 73.7733 34.8038C73.4773 34.9958 73.2573 35.2478 73.1133 35.5598L72.2973 35.1158C72.4173 34.8438 72.6053 34.5958 72.8613 34.3718C73.1253 34.1478 73.4253 33.9718 73.7613 33.8438C74.0973 33.7078 74.4453 33.6398 74.8053 33.6398C75.2773 33.6398 75.6933 33.7318 76.0533 33.9158C76.4213 34.0998 76.7053 34.3558 76.9053 34.6838C77.1133 35.0038 77.2173 35.3758 77.2173 35.7998V40.2158H76.3173V38.9318L76.4493 39.0638C76.3373 39.3038 76.1613 39.5238 75.9213 39.7238C75.6893 39.9158 75.4133 40.0718 75.0933 40.1918C74.7813 40.3038 74.4373 40.3598 74.0613 40.3598ZM84.2516 40.3598C83.6836 40.3598 83.1676 40.2518 82.7036 40.0358C82.2396 39.8198 81.8476 39.5318 81.5276 39.1718C81.2076 38.8038 80.9796 38.3998 80.8436 37.9598L81.7076 37.6358C81.9156 38.2438 82.2396 38.7078 82.6796 39.0278C83.1196 39.3398 83.6436 39.4958 84.2516 39.4958C84.6356 39.4958 84.9716 39.4358 85.2596 39.3158C85.5556 39.1878 85.7836 39.0118 85.9436 38.7878C86.1036 38.5638 86.1836 38.3038 86.1836 38.0078C86.1836 37.5678 86.0636 37.2278 85.8236 36.9878C85.5836 36.7478 85.2396 36.5638 84.7916 36.4358L83.1836 35.9558C82.5516 35.7718 82.0636 35.4638 81.7196 35.0318C81.3836 34.5998 81.2156 34.1078 81.2156 33.5558C81.2156 33.0838 81.3316 32.6678 81.5636 32.3078C81.7956 31.9398 82.1116 31.6518 82.5116 31.4438C82.9196 31.2358 83.3796 31.1318 83.8916 31.1318C84.4276 31.1318 84.9076 31.2318 85.3316 31.4318C85.7636 31.6238 86.1276 31.8798 86.4236 32.1998C86.7196 32.5198 86.9316 32.8758 87.0596 33.2678L86.2196 33.6038C86.0276 33.0758 85.7276 32.6758 85.3196 32.4038C84.9196 32.1318 84.4476 31.9958 83.9036 31.9958C83.5596 31.9958 83.2556 32.0558 82.9916 32.1758C82.7356 32.2958 82.5356 32.4678 82.3916 32.6918C82.2476 32.9158 82.1756 33.1798 82.1756 33.4838C82.1756 33.8518 82.2916 34.1838 82.5236 34.4798C82.7556 34.7678 83.1116 34.9838 83.5916 35.1278L85.0076 35.5478C85.7116 35.7558 86.2436 36.0558 86.6036 36.4478C86.9636 36.8398 87.1436 37.3318 87.1436 37.9238C87.1436 38.4038 87.0196 38.8278 86.7716 39.1958C86.5316 39.5558 86.1916 39.8398 85.7516 40.0478C85.3196 40.2558 84.8196 40.3598 84.2516 40.3598ZM91.1454 40.3598C90.6974 40.3598 90.2894 40.2558 89.9214 40.0478C89.5534 39.8318 89.2614 39.5358 89.0454 39.1598C88.8374 38.7758 88.7334 38.3358 88.7334 37.8398V33.7838H89.6334V37.7318C89.6334 38.0758 89.7014 38.3798 89.8374 38.6438C89.9814 38.8998 90.1774 39.0998 90.4254 39.2438C90.6814 39.3878 90.9734 39.4598 91.3014 39.4598C91.6294 39.4598 91.9214 39.3878 92.1774 39.2438C92.4334 39.0918 92.6334 38.8798 92.7774 38.6078C92.9214 38.3278 92.9934 37.9958 92.9934 37.6118V33.7838H93.8934V40.2158H92.9934V38.9678L93.1974 39.0158C93.0454 39.4318 92.7854 39.7598 92.4174 39.9998C92.0494 40.2398 91.6254 40.3598 91.1454 40.3598ZM98.9963 40.3598C98.4443 40.3598 97.9443 40.2358 97.4963 39.9878C97.0563 39.7318 96.7243 39.3718 96.5003 38.9078L96.6443 38.7758V40.2158H95.7443V31.1318H96.6443V35.2238L96.5003 34.9718C96.7563 34.5638 97.0963 34.2398 97.5203 33.9998C97.9523 33.7598 98.4443 33.6398 98.9963 33.6398C99.6043 33.6398 100.144 33.7878 100.616 34.0838C101.096 34.3718 101.472 34.7678 101.744 35.2718C102.024 35.7758 102.164 36.3518 102.164 36.9998C102.164 37.6398 102.024 38.2158 101.744 38.7278C101.472 39.2318 101.096 39.6318 100.616 39.9278C100.144 40.2158 99.6043 40.3598 98.9963 40.3598ZM98.9483 39.4598C99.3803 39.4598 99.7643 39.3518 100.1 39.1358C100.444 38.9198 100.712 38.6278 100.904 38.2598C101.104 37.8838 101.204 37.4638 101.204 36.9998C101.204 36.5278 101.104 36.1078 100.904 35.7398C100.712 35.3718 100.444 35.0798 100.1 34.8638C99.7643 34.6478 99.3803 34.5398 98.9483 34.5398C98.5163 34.5398 98.1243 34.6478 97.7723 34.8638C97.4283 35.0798 97.1523 35.3758 96.9443 35.7518C96.7443 36.1198 96.6443 36.5358 96.6443 36.9998C96.6443 37.4638 96.7443 37.8838 96.9443 38.2598C97.1523 38.6278 97.4283 38.9198 97.7723 39.1358C98.1243 39.3518 98.5163 39.4598 98.9483 39.4598ZM103.748 40.2158V33.7838H104.648V35.0078L104.504 34.8278C104.68 34.4518 104.94 34.1598 105.284 33.9518C105.636 33.7438 106.02 33.6398 106.436 33.6398C106.932 33.6398 107.38 33.7798 107.78 34.0598C108.18 34.3398 108.464 34.7038 108.632 35.1518L108.38 35.1638C108.54 34.6678 108.816 34.2918 109.208 34.0358C109.608 33.7718 110.048 33.6398 110.528 33.6398C110.96 33.6398 111.356 33.7438 111.716 33.9518C112.084 34.1598 112.376 34.4478 112.592 34.8158C112.816 35.1758 112.928 35.5838 112.928 36.0398V40.2158H112.028V36.3878C112.028 35.9958 111.956 35.6638 111.812 35.3918C111.676 35.1198 111.488 34.9118 111.248 34.7678C111.008 34.6158 110.732 34.5398 110.42 34.5398C110.116 34.5398 109.84 34.6158 109.592 34.7678C109.344 34.9118 109.148 35.1238 109.004 35.4038C108.86 35.6758 108.788 36.0038 108.788 36.3878V40.2158H107.888V36.3878C107.888 35.9958 107.816 35.6638 107.672 35.3918C107.536 35.1198 107.348 34.9118 107.108 34.7678C106.868 34.6158 106.592 34.5398 106.28 34.5398C105.968 34.5398 105.688 34.6158 105.44 34.7678C105.2 34.9118 105.008 35.1238 104.864 35.4038C104.72 35.6758 104.648 36.0038 104.648 36.3878V40.2158H103.748ZM114.647 40.2158V33.7838H115.547V40.2158H114.647ZM114.647 32.5958V31.2758H115.547V32.5958H114.647ZM119.621 40.3598C119.005 40.3598 118.465 40.2038 118.001 39.8918C117.537 39.5798 117.201 39.1558 116.993 38.6198L117.749 38.2598C117.933 38.6518 118.189 38.9638 118.517 39.1958C118.853 39.4278 119.221 39.5438 119.621 39.5438C120.005 39.5438 120.329 39.4518 120.593 39.2678C120.857 39.0758 120.989 38.8278 120.989 38.5238C120.989 38.2998 120.925 38.1238 120.797 37.9958C120.669 37.8598 120.521 37.7558 120.353 37.6838C120.185 37.6118 120.037 37.5598 119.909 37.5278L118.985 37.2638C118.393 37.0958 117.965 36.8598 117.701 36.5558C117.437 36.2518 117.305 35.8998 117.305 35.4998C117.305 35.1238 117.401 34.7958 117.593 34.5158C117.785 34.2358 118.045 34.0198 118.373 33.8678C118.701 33.7158 119.065 33.6398 119.465 33.6398C120.009 33.6398 120.501 33.7838 120.941 34.0718C121.389 34.3518 121.705 34.7438 121.889 35.2478L121.121 35.6078C120.961 35.2478 120.729 34.9678 120.425 34.7678C120.129 34.5598 119.797 34.4558 119.429 34.4558C119.069 34.4558 118.781 34.5478 118.565 34.7318C118.349 34.9158 118.241 35.1478 118.241 35.4278C118.241 35.6438 118.297 35.8158 118.409 35.9438C118.521 36.0718 118.649 36.1678 118.793 36.2318C118.945 36.2958 119.077 36.3438 119.189 36.3758L120.257 36.6878C120.777 36.8398 121.181 37.0758 121.469 37.3958C121.765 37.7158 121.913 38.0918 121.913 38.5238C121.913 38.8758 121.813 39.1918 121.613 39.4718C121.421 39.7518 121.153 39.9718 120.809 40.1318C120.465 40.2838 120.069 40.3598 119.621 40.3598ZM125.726 40.3598C125.11 40.3598 124.57 40.2038 124.106 39.8918C123.642 39.5798 123.306 39.1558 123.098 38.6198L123.854 38.2598C124.038 38.6518 124.294 38.9638 124.622 39.1958C124.958 39.4278 125.326 39.5438 125.726 39.5438C126.11 39.5438 126.434 39.4518 126.698 39.2678C126.962 39.0758 127.094 38.8278 127.094 38.5238C127.094 38.2998 127.03 38.1238 126.902 37.9958C126.774 37.8598 126.626 37.7558 126.458 37.6838C126.29 37.6118 126.142 37.5598 126.014 37.5278L125.09 37.2638C124.498 37.0958 124.07 36.8598 123.806 36.5558C123.542 36.2518 123.41 35.8998 123.41 35.4998C123.41 35.1238 123.506 34.7958 123.698 34.5158C123.89 34.2358 124.15 34.0198 124.478 33.8678C124.806 33.7158 125.17 33.6398 125.57 33.6398C126.114 33.6398 126.606 33.7838 127.046 34.0718C127.494 34.3518 127.81 34.7438 127.994 35.2478L127.226 35.6078C127.066 35.2478 126.834 34.9678 126.53 34.7678C126.234 34.5598 125.902 34.4558 125.534 34.4558C125.174 34.4558 124.886 34.5478 124.67 34.7318C124.454 34.9158 124.346 35.1478 124.346 35.4278C124.346 35.6438 124.402 35.8158 124.514 35.9438C124.626 36.0718 124.754 36.1678 124.898 36.2318C125.05 36.2958 125.182 36.3438 125.294 36.3758L126.362 36.6878C126.882 36.8398 127.286 37.0758 127.574 37.3958C127.87 37.7158 128.018 38.0918 128.018 38.5238C128.018 38.8758 127.918 39.1918 127.718 39.4718C127.526 39.7518 127.258 39.9718 126.914 40.1318C126.57 40.2838 126.174 40.3598 125.726 40.3598ZM129.6 40.2158V33.7838H130.5V40.2158H129.6ZM129.6 32.5958V31.2758H130.5V32.5958H129.6ZM135.354 40.3598C134.746 40.3598 134.194 40.2158 133.698 39.9278C133.202 39.6318 132.806 39.2318 132.51 38.7278C132.222 38.2158 132.078 37.6358 132.078 36.9878C132.078 36.3478 132.222 35.7758 132.51 35.2718C132.798 34.7678 133.186 34.3718 133.674 34.0838C134.17 33.7878 134.73 33.6398 135.354 33.6398C135.978 33.6398 136.534 33.7838 137.022 34.0718C137.518 34.3598 137.906 34.7558 138.186 35.2598C138.474 35.7638 138.618 36.3398 138.618 36.9878C138.618 37.6438 138.47 38.2278 138.174 38.7398C137.878 39.2438 137.482 39.6398 136.986 39.9278C136.498 40.2158 135.954 40.3598 135.354 40.3598ZM135.354 39.4598C135.786 39.4598 136.174 39.3518 136.518 39.1358C136.87 38.9198 137.146 38.6238 137.346 38.2478C137.554 37.8718 137.658 37.4518 137.658 36.9878C137.658 36.5238 137.554 36.1078 137.346 35.7398C137.146 35.3718 136.87 35.0798 136.518 34.8638C136.174 34.6478 135.786 34.5398 135.354 34.5398C134.922 34.5398 134.53 34.6478 134.178 34.8638C133.834 35.0798 133.558 35.3718 133.35 35.7398C133.142 36.1078 133.038 36.5238 133.038 36.9878C133.038 37.4518 133.142 37.8718 133.35 38.2478C133.558 38.6238 133.834 38.9198 134.178 39.1358C134.53 39.3518 134.922 39.4598 135.354 39.4598ZM140.205 40.2158V33.7838H141.105V35.0318L140.901 34.9838C141.061 34.5678 141.321 34.2398 141.681 33.9998C142.049 33.7598 142.473 33.6398 142.953 33.6398C143.409 33.6398 143.817 33.7438 144.177 33.9518C144.545 34.1598 144.833 34.4478 145.041 34.8158C145.257 35.1758 145.365 35.5838 145.365 36.0398V40.2158H144.465V36.3878C144.465 35.9958 144.393 35.6638 144.249 35.3918C144.113 35.1198 143.917 34.9118 143.661 34.7678C143.413 34.6158 143.125 34.5398 142.797 34.5398C142.469 34.5398 142.177 34.6158 141.921 34.7678C141.665 34.9118 141.465 35.1238 141.321 35.4038C141.177 35.6758 141.105 36.0038 141.105 36.3878V40.2158H140.205ZM152.267 40.3598C151.699 40.3598 151.183 40.2518 150.719 40.0358C150.255 39.8198 149.863 39.5318 149.543 39.1718C149.223 38.8038 148.995 38.3998 148.859 37.9598L149.723 37.6358C149.931 38.2438 150.255 38.7078 150.695 39.0278C151.135 39.3398 151.659 39.4958 152.267 39.4958C152.651 39.4958 152.987 39.4358 153.275 39.3158C153.571 39.1878 153.799 39.0118 153.959 38.7878C154.119 38.5638 154.199 38.3038 154.199 38.0078C154.199 37.5678 154.079 37.2278 153.839 36.9878C153.599 36.7478 153.255 36.5638 152.807 36.4358L151.199 35.9558C150.567 35.7718 150.079 35.4638 149.735 35.0318C149.399 34.5998 149.231 34.1078 149.231 33.5558C149.231 33.0838 149.347 32.6678 149.579 32.3078C149.811 31.9398 150.127 31.6518 150.527 31.4438C150.935 31.2358 151.395 31.1318 151.907 31.1318C152.443 31.1318 152.923 31.2318 153.347 31.4318C153.779 31.6238 154.143 31.8798 154.439 32.1998C154.735 32.5198 154.947 32.8758 155.075 33.2678L154.235 33.6038C154.043 33.0758 153.743 32.6758 153.335 32.4038C152.935 32.1318 152.463 31.9958 151.919 31.9958C151.575 31.9958 151.271 32.0558 151.007 32.1758C150.751 32.2958 150.551 32.4678 150.407 32.6918C150.263 32.9158 150.191 33.1798 150.191 33.4838C150.191 33.8518 150.307 34.1838 150.539 34.4798C150.771 34.7678 151.127 34.9838 151.607 35.1278L153.023 35.5478C153.727 35.7558 154.259 36.0558 154.619 36.4478C154.979 36.8398 155.159 37.3318 155.159 37.9238C155.159 38.4038 155.035 38.8278 154.787 39.1958C154.547 39.5558 154.207 39.8398 153.767 40.0478C153.335 40.2558 152.835 40.3598 152.267 40.3598ZM157.013 42.8558C156.885 42.8558 156.753 42.8438 156.617 42.8198C156.489 42.8038 156.361 42.7718 156.233 42.7238V41.8838C156.313 41.8918 156.413 41.9038 156.533 41.9198C156.661 41.9438 156.789 41.9558 156.917 41.9558C157.309 41.9558 157.609 41.8718 157.817 41.7038C158.025 41.5438 158.229 41.2318 158.429 40.7678L158.837 39.8078L158.813 40.5998L156.089 33.7838H157.061L159.293 39.4118H159.041L161.261 33.7838H162.257L159.317 41.0318C159.189 41.3438 159.025 41.6398 158.825 41.9198C158.633 42.1998 158.389 42.4238 158.093 42.5918C157.797 42.7678 157.437 42.8558 157.013 42.8558ZM165.547 40.3598C164.931 40.3598 164.391 40.2038 163.927 39.8918C163.463 39.5798 163.127 39.1558 162.919 38.6198L163.675 38.2598C163.859 38.6518 164.115 38.9638 164.443 39.1958C164.779 39.4278 165.147 39.5438 165.547 39.5438C165.931 39.5438 166.255 39.4518 166.519 39.2678C166.783 39.0758 166.915 38.8278 166.915 38.5238C166.915 38.2998 166.851 38.1238 166.723 37.9958C166.595 37.8598 166.447 37.7558 166.279 37.6838C166.111 37.6118 165.963 37.5598 165.835 37.5278L164.911 37.2638C164.319 37.0958 163.891 36.8598 163.627 36.5558C163.363 36.2518 163.231 35.8998 163.231 35.4998C163.231 35.1238 163.327 34.7958 163.519 34.5158C163.711 34.2358 163.971 34.0198 164.299 33.8678C164.627 33.7158 164.991 33.6398 165.391 33.6398C165.935 33.6398 166.427 33.7838 166.867 34.0718C167.315 34.3518 167.631 34.7438 167.815 35.2478L167.047 35.6078C166.887 35.2478 166.655 34.9678 166.351 34.7678C166.055 34.5598 165.723 34.4558 165.355 34.4558C164.995 34.4558 164.707 34.5478 164.491 34.7318C164.275 34.9158 164.167 35.1478 164.167 35.4278C164.167 35.6438 164.223 35.8158 164.335 35.9438C164.447 36.0718 164.575 36.1678 164.719 36.2318C164.871 36.2958 165.003 36.3438 165.115 36.3758L166.183 36.6878C166.703 36.8398 167.107 37.0758 167.395 37.3958C167.691 37.7158 167.839 38.0918 167.839 38.5238C167.839 38.8758 167.739 39.1918 167.539 39.4718C167.347 39.7518 167.079 39.9718 166.735 40.1318C166.391 40.2838 165.995 40.3598 165.547 40.3598ZM171.88 40.2878C171.304 40.2878 170.86 40.1198 170.548 39.7838C170.236 39.4478 170.08 38.9678 170.08 38.3438V34.6838H168.892V33.7838H169.192C169.464 33.7838 169.68 33.6958 169.84 33.5198C170 33.3358 170.08 33.1078 170.08 32.8358V32.2958H170.98V33.7838H172.396V34.6838H170.98V38.3438C170.98 38.5598 171.012 38.7518 171.076 38.9198C171.14 39.0798 171.248 39.2078 171.4 39.3038C171.56 39.3998 171.772 39.4478 172.036 39.4478C172.1 39.4478 172.176 39.4438 172.264 39.4358C172.352 39.4278 172.428 39.4198 172.492 39.4118V40.2158C172.396 40.2398 172.288 40.2558 172.168 40.2638C172.048 40.2798 171.952 40.2878 171.88 40.2878ZM176.766 40.3598C176.166 40.3598 175.622 40.2158 175.134 39.9278C174.654 39.6318 174.274 39.2278 173.994 38.7158C173.714 38.2038 173.574 37.6238 173.574 36.9758C173.574 36.3278 173.71 35.7558 173.982 35.2598C174.254 34.7558 174.622 34.3598 175.086 34.0718C175.558 33.7838 176.086 33.6398 176.67 33.6398C177.134 33.6398 177.546 33.7278 177.906 33.9038C178.274 34.0718 178.586 34.3038 178.842 34.5998C179.098 34.8878 179.294 35.2158 179.43 35.5838C179.566 35.9438 179.634 36.3158 179.634 36.6998C179.634 36.7798 179.63 36.8718 179.622 36.9758C179.614 37.0718 179.602 37.1718 179.586 37.2758H174.15V36.4358H179.07L178.638 36.7958C178.71 36.3558 178.658 35.9638 178.482 35.6198C178.314 35.2678 178.07 34.9918 177.75 34.7918C177.43 34.5838 177.07 34.4798 176.67 34.4798C176.27 34.4798 175.898 34.5838 175.554 34.7918C175.218 34.9998 174.954 35.2918 174.762 35.6678C174.57 36.0358 174.494 36.4758 174.534 36.9878C174.494 37.4998 174.574 37.9478 174.774 38.3318C174.982 38.7078 175.262 38.9998 175.614 39.2078C175.974 39.4158 176.358 39.5198 176.766 39.5198C177.238 39.5198 177.634 39.4078 177.954 39.1838C178.274 38.9598 178.534 38.6798 178.734 38.3438L179.502 38.7518C179.374 39.0398 179.178 39.3078 178.914 39.5558C178.65 39.7958 178.334 39.9918 177.966 40.1438C177.606 40.2878 177.206 40.3598 176.766 40.3598ZM181.221 40.2158V33.7838H182.121V35.0078L181.977 34.8278C182.153 34.4518 182.413 34.1598 182.757 33.9518C183.109 33.7438 183.493 33.6398 183.909 33.6398C184.405 33.6398 184.853 33.7798 185.253 34.0598C185.653 34.3398 185.937 34.7038 186.105 35.1518L185.853 35.1638C186.013 34.6678 186.289 34.2918 186.681 34.0358C187.081 33.7718 187.521 33.6398 188.001 33.6398C188.433 33.6398 188.829 33.7438 189.189 33.9518C189.557 34.1598 189.849 34.4478 190.065 34.8158C190.289 35.1758 190.401 35.5838 190.401 36.0398V40.2158H189.501V36.3878C189.501 35.9958 189.429 35.6638 189.285 35.3918C189.149 35.1198 188.961 34.9118 188.721 34.7678C188.481 34.6158 188.205 34.5398 187.893 34.5398C187.589 34.5398 187.313 34.6158 187.065 34.7678C186.817 34.9118 186.621 35.1238 186.477 35.4038C186.333 35.6758 186.261 36.0038 186.261 36.3878V40.2158H185.361V36.3878C185.361 35.9958 185.289 35.6638 185.145 35.3918C185.009 35.1198 184.821 34.9118 184.581 34.7678C184.341 34.6158 184.065 34.5398 183.753 34.5398C183.441 34.5398 183.161 34.6158 182.913 34.7678C182.673 34.9118 182.481 35.1238 182.337 35.4038C182.193 35.6758 182.121 36.0038 182.121 36.3878V40.2158H181.221Z" fill="#D9D9D9" style="fill:#D9D9D9;fill:color(display-p3 0.8510 0.8510 0.8510);fill-opacity:1;"/>
</svg>
