<svg width="22" height="22" viewBox="0 0 22 22" fill="none" xmlns="http://www.w3.org/2000/svg">
<path d="M18.3569 14.6799L17.7868 17.2399C17.7745 17.9739 17.4857 18.6763 16.9781 19.2067C16.4705 19.7371 15.7815 20.0565 15.0487 20.1011C14.3159 20.1458 13.5932 19.9123 13.025 19.4474C12.4568 18.9825 12.0849 18.3203 11.9835 17.5932C11.9735 17.5132 11.9669 17.4332 11.9635 17.3532C11.6952 17.1207 11.352 16.9926 10.9969 16.9926C10.6418 16.9926 10.2986 17.1206 10.0302 17.3532C9.70254 21.071 4.39574 20.9692 4.20688 17.2365L3.64354 14.7032C3.62599 14.6177 3.64266 14.5288 3.68999 14.4555C3.73731 14.3822 3.8115 14.3303 3.89662 14.3111C3.98174 14.2919 4.071 14.3069 4.14522 14.3528C4.21943 14.3986 4.27269 14.4718 4.29354 14.5565L4.56688 15.7866C4.85575 15.269 5.29516 14.8515 5.82682 14.5893C6.35848 14.3272 6.95726 14.233 7.54373 14.319C8.13021 14.4051 8.67667 14.6674 9.11063 15.0712C9.54459 15.4749 9.84553 16.0011 9.97354 16.5799C10.2891 16.4119 10.6411 16.3241 10.9985 16.3241C11.356 16.3241 11.708 16.4119 12.0235 16.5799C12.1471 15.998 12.4459 15.468 12.8797 15.0611C13.3136 14.6542 13.8616 14.3899 14.4502 14.3039C15.0387 14.2178 15.6395 14.3141 16.1717 14.5798C16.7039 14.8455 17.1419 15.2678 17.4269 15.7899L17.7069 14.5332C17.7162 14.4905 17.7339 14.45 17.7589 14.4141C17.7839 14.3783 17.8157 14.3477 17.8526 14.3241C17.8894 14.3006 17.9306 14.2846 17.9736 14.277C18.0167 14.2694 18.0609 14.2704 18.1035 14.2799C18.1901 14.2995 18.2653 14.3526 18.3128 14.4276C18.3603 14.5025 18.3761 14.5933 18.3569 14.6799ZM18.3269 8.57655C17.8323 8.38637 17.3256 8.22935 16.8102 8.10655C16.3702 7.01988 15.7535 5.42988 14.9602 3.36655C14.8809 3.15982 14.7566 2.97332 14.5963 2.82055C14.4361 2.66777 14.2438 2.55255 14.0335 2.48322C13.8228 2.41287 13.5991 2.38984 13.3785 2.41577C13.1578 2.44169 12.9456 2.51594 12.7569 2.63322L11.4635 3.44655C11.3289 3.52831 11.1744 3.57155 11.0169 3.57155C10.8594 3.57155 10.7049 3.52831 10.5702 3.44655L9.25354 2.61988C9.06622 2.50537 8.85625 2.43293 8.63817 2.40757C8.42008 2.38221 8.19909 2.40455 7.99049 2.47302C7.78189 2.5415 7.59066 2.65449 7.43003 2.80416C7.26941 2.95384 7.14322 3.13663 7.06021 3.33988L5.15021 8.11655C3.58021 8.45667 1.57593 9.38297 1.66693 10.4733C1.80916 14.4293 20.1915 14.4299 20.3335 10.4732C20.3335 9.96321 19.9835 9.22322 18.3269 8.57655Z" fill="#4294FF" style="fill:#4294FF;fill:color(display-p3 0.2588 0.5804 1.0000);fill-opacity:1;"/>
</svg>
