<svg width="25" height="25" viewBox="0 0 25 25" fill="none" xmlns="http://www.w3.org/2000/svg">
<path d="M11.2053 21.2158C11.3808 21.5198 11.6333 21.7723 11.9373 21.9478C12.2413 22.1233 12.5862 22.2157 12.9373 22.2157C13.2883 22.2157 13.6332 22.1233 13.9372 21.9478C14.2412 21.7723 14.4937 21.5198 14.6693 21.2158M4.19926 15.5418C4.06862 15.685 3.98241 15.8631 3.95111 16.0543C3.91981 16.2456 3.94478 16.4419 4.02296 16.6192C4.10115 16.7966 4.22919 16.9474 4.39151 17.0533C4.55383 17.1592 4.74344 17.2157 4.93726 17.2158H20.9373C21.1311 17.2159 21.3207 17.1596 21.4831 17.0539C21.6455 16.9482 21.7738 16.7976 21.8521 16.6203C21.9305 16.4431 21.9557 16.2469 21.9247 16.0556C21.8936 15.8643 21.8077 15.6862 21.6773 15.5428C20.3473 14.1718 18.9373 12.7148 18.9373 8.21582C18.9373 6.62452 18.3051 5.0984 17.1799 3.97318C16.0547 2.84796 14.5286 2.21582 12.9373 2.21582C11.346 2.21582 9.81984 2.84796 8.69462 3.97318C7.5694 5.0984 6.93726 6.62452 6.93726 8.21582C6.93726 12.7148 5.52626 14.1718 4.19926 15.5418Z" stroke="#F5F5F5" style="stroke:#F5F5F5;stroke:color(display-p3 0.9608 0.9608 0.9608);stroke-opacity:1;" stroke-width="1.5" stroke-linecap="round" stroke-linejoin="round"/>
</svg>
