<svg width="16" height="17" viewBox="0 0 16 17" fill="none" xmlns="http://www.w3.org/2000/svg">
<path d="M0 8.25C0 3.83172 3.58172 0.25 8 0.25C12.4183 0.25 16 3.83172 16 8.25C16 12.6683 12.4183 16.25 8 16.25C3.58172 16.25 0 12.6683 0 8.25Z" fill="white" style="fill:white;fill-opacity:1;"/>
<path d="M0.5 8.25C0.5 4.10786 3.85786 0.75 8 0.75C12.1421 0.75 15.5 4.10786 15.5 8.25C15.5 12.3921 12.1421 15.75 8 15.75C3.85786 15.75 0.5 12.3921 0.5 8.25Z" fill="#005AEB" stroke="#E6E6E6" style="fill:#005AEB;fill:color(display-p3 0.0000 0.3529 0.9216);fill-opacity:1;stroke:#E6E6E6;stroke:color(display-p3 0.9020 0.9020 0.9020);stroke-opacity:1;"/>
<path d="M7.10533 12.8541L7.08771 12.8717L2.68787 8.47185L4.12054 7.03917L7.10539 10.024L11.8794 5.25L13.3121 6.68268L7.12301 12.8718L7.10533 12.8541Z" fill="white" style="fill:white;fill-opacity:1;"/>
</svg>
