<svg width="24" height="25" viewBox="0 0 24 25" fill="none" xmlns="http://www.w3.org/2000/svg">
<path d="M12 13.7686C12.5523 13.7686 13 13.3208 13 12.7686C13 12.2163 12.5523 11.7686 12 11.7686C11.4477 11.7686 11 12.2163 11 12.7686C11 13.3208 11.4477 13.7686 12 13.7686Z" stroke="#1E1E1E" style="stroke:#1E1E1E;stroke:color(display-p3 0.1176 0.1176 0.1176);stroke-opacity:1;" stroke-width="1.5" stroke-linecap="round" stroke-linejoin="round"/>
<path d="M19 13.7686C19.5523 13.7686 20 13.3208 20 12.7686C20 12.2163 19.5523 11.7686 19 11.7686C18.4477 11.7686 18 12.2163 18 12.7686C18 13.3208 18.4477 13.7686 19 13.7686Z" stroke="#1E1E1E" style="stroke:#1E1E1E;stroke:color(display-p3 0.1176 0.1176 0.1176);stroke-opacity:1;" stroke-width="1.5" stroke-linecap="round" stroke-linejoin="round"/>
<path d="M5 13.7686C5.55228 13.7686 6 13.3208 6 12.7686C6 12.2163 5.55228 11.7686 5 11.7686C4.44772 11.7686 4 12.2163 4 12.7686C4 13.3208 4.44772 13.7686 5 13.7686Z" stroke="#1E1E1E" style="stroke:#1E1E1E;stroke:color(display-p3 0.1176 0.1176 0.1176);stroke-opacity:1;" stroke-width="1.5" stroke-linecap="round" stroke-linejoin="round"/>
</svg>
