<svg width="24" height="25" viewBox="0 0 24 25" fill="none" xmlns="http://www.w3.org/2000/svg">
<path d="M2.06199 13.1165C1.97865 12.892 1.97865 12.6451 2.06199 12.4205C2.87369 10.4524 4.2515 8.76959 6.02076 7.58545C7.79001 6.40131 9.87103 5.76917 12 5.76917C14.1289 5.76917 16.21 6.40131 17.9792 7.58545C19.7485 8.76959 21.1263 10.4524 21.938 12.4205C22.0213 12.6451 22.0213 12.892 21.938 13.1165C21.1263 15.0847 19.7485 16.7675 17.9792 17.9517C16.21 19.1358 14.1289 19.7679 12 19.7679C9.87103 19.7679 7.79001 19.1358 6.02076 17.9517C4.2515 16.7675 2.87369 15.0847 2.06199 13.1165Z" stroke="#1E1E1E" style="stroke:#1E1E1E;stroke:color(display-p3 0.1176 0.1176 0.1176);stroke-opacity:1;" stroke-width="1.5" stroke-linecap="round" stroke-linejoin="round"/>
<path d="M12 15.7685C13.6568 15.7685 15 14.4254 15 12.7685C15 11.1117 13.6568 9.76855 12 9.76855C10.3431 9.76855 8.99999 11.1117 8.99999 12.7685C8.99999 14.4254 10.3431 15.7685 12 15.7685Z" stroke="#1E1E1E" style="stroke:#1E1E1E;stroke:color(display-p3 0.1176 0.1176 0.1176);stroke-opacity:1;" stroke-width="1.5" stroke-linecap="round" stroke-linejoin="round"/>
</svg>
