<svg width="24" height="25" viewBox="0 0 24 25" fill="none" xmlns="http://www.w3.org/2000/svg">
<path d="M14 2.76855V6.76855C14 7.29899 14.2107 7.8077 14.5858 8.18277C14.9609 8.55784 15.4696 8.76855 16 8.76855H20M10 9.76855H8M16 13.7686H8M16 17.7686H8M15 2.76855H6C5.46957 2.76855 4.96086 2.97927 4.58579 3.35434C4.21071 3.72941 4 4.23812 4 4.76855V20.7686C4 21.299 4.21071 21.8077 4.58579 22.1828C4.96086 22.5578 5.46957 22.7686 6 22.7686H18C18.5304 22.7686 19.0391 22.5578 19.4142 22.1828C19.7893 21.8077 20 21.299 20 20.7686V7.76855L15 2.76855Z" stroke="#1E1E1E" style="stroke:#1E1E1E;stroke:color(display-p3 0.1176 0.1176 0.1176);stroke-opacity:1;" stroke-width="1.5" stroke-linecap="round" stroke-linejoin="round"/>
</svg>
