<svg width="24" height="25" viewBox="0 0 24 25" fill="none" xmlns="http://www.w3.org/2000/svg">
<path d="M18 22.7686H4C3.46957 22.7686 2.96086 22.5578 2.58579 22.1828C2.21071 21.8077 2 21.299 2 20.7686V6.76855M22 13.7686L20.704 12.4726C20.252 12.0207 19.6391 11.7668 19 11.7668C18.3609 11.7668 17.748 12.0207 17.296 12.4726L11 18.7686M14 8.76855C14 9.87312 13.1046 10.7686 12 10.7686C10.8954 10.7686 10 9.87312 10 8.76855C10 7.66399 10.8954 6.76855 12 6.76855C13.1046 6.76855 14 7.66399 14 8.76855ZM8 2.76855H20C21.1046 2.76855 22 3.66399 22 4.76855V16.7686C22 17.8731 21.1046 18.7686 20 18.7686H8C6.89543 18.7686 6 17.8731 6 16.7686V4.76855C6 3.66399 6.89543 2.76855 8 2.76855Z" stroke="#1E1E1E" style="stroke:#1E1E1E;stroke:color(display-p3 0.1176 0.1176 0.1176);stroke-opacity:1;" stroke-width="1.5" stroke-linecap="round" stroke-linejoin="round"/>
</svg>
