<svg width="24" height="25" viewBox="0 0 24 25" fill="none" xmlns="http://www.w3.org/2000/svg">
<path d="M16.5 8.76856C16.7761 8.76856 17 8.54471 17 8.26856C17 7.99242 16.7761 7.76856 16.5 7.76856C16.2239 7.76856 16 7.99242 16 8.26856C16 8.54471 16.2239 8.76856 16.5 8.76856Z" fill="#1E1E1E" style="fill:#1E1E1E;fill:color(display-p3 0.1176 0.1176 0.1176);fill-opacity:1;"/>
<path d="M2.586 18.1826C2.2109 18.5575 2.00011 19.0662 2 19.5966V21.7686C2 22.0338 2.10536 22.2881 2.29289 22.4757C2.48043 22.6632 2.73478 22.7686 3 22.7686H6C6.26522 22.7686 6.51957 22.6632 6.70711 22.4757C6.89464 22.2881 7 22.0338 7 21.7686V20.7686C7 20.5033 7.10536 20.249 7.29289 20.0615C7.48043 19.8739 7.73478 19.7686 8 19.7686H9C9.26522 19.7686 9.51957 19.6632 9.70711 19.4757C9.89464 19.2881 10 19.0338 10 18.7686V17.7686C10 17.5033 10.1054 17.249 10.2929 17.0615C10.4804 16.8739 10.7348 16.7686 11 16.7686H11.172C11.7024 16.7684 12.211 16.5577 12.586 16.1826L13.4 15.3686C14.7898 15.8527 16.3028 15.8509 17.6915 15.3633C19.0801 14.8758 20.2622 13.9314 21.0444 12.6847C21.8265 11.438 22.1624 9.96274 21.9971 8.5003C21.8318 7.03787 21.1751 5.67481 20.1344 4.63413C19.0937 3.59345 17.7307 2.93675 16.2683 2.77145C14.8058 2.60616 13.3306 2.94206 12.0839 3.7242C10.8372 4.50635 9.89279 5.68844 9.40525 7.07708C8.91771 8.46573 8.91585 9.97873 9.4 11.3686L2.586 18.1826Z" stroke="#1E1E1E" style="stroke:#1E1E1E;stroke:color(display-p3 0.1176 0.1176 0.1176);stroke-opacity:1;" stroke-width="1.5" stroke-linecap="round" stroke-linejoin="round"/>
<path d="M16.5 8.76856C16.7761 8.76856 17 8.54471 17 8.26856C17 7.99242 16.7761 7.76856 16.5 7.76856C16.2239 7.76856 16 7.99242 16 8.26856C16 8.54471 16.2239 8.76856 16.5 8.76856Z" stroke="#1E1E1E" style="stroke:#1E1E1E;stroke:color(display-p3 0.1176 0.1176 0.1176);stroke-opacity:1;" stroke-width="1.5" stroke-linecap="round" stroke-linejoin="round"/>
</svg>
