<svg width="24" height="25" viewBox="0 0 24 25" fill="none" xmlns="http://www.w3.org/2000/svg">
  <path d="M14 4.76855H21M14 9.76855H21M14 15.7686H21M14 20.7686H21M4 3.76855H9C9.55228 3.76855 10 4.21627 10 4.76855V9.76855C10 10.3208 9.55228 10.7686 9 10.7686H4C3.44772 10.7686 3 10.3208 3 9.76855V4.76855C3 4.21627 3.44772 3.76855 4 3.76855ZM4 14.7686H9C9.55228 14.7686 10 15.2163 10 15.7686V20.7686C10 21.3208 9.55228 21.7686 9 21.7686H4C3.44772 21.7686 3 21.3208 3 20.7686V15.7686C3 15.2163 3.44772 14.7686 4 14.7686Z" stroke="#005AEB" stroke-width="1.5" stroke-linecap="round" stroke-linejoin="round"/>
</svg>
