<svg width="24" height="25" viewBox="0 0 24 25" fill="none" xmlns="http://www.w3.org/2000/svg">
  <path d="M8 12.7685H8.01M12 12.7685H12.01M16 12.7685H16.01M7.9 20.7685C9.80858 21.7476 12.0041 22.0128 14.0909 21.5163C16.1777 21.0198 18.0186 19.7944 19.2818 18.0607C20.545 16.3271 21.1474 14.1992 20.9806 12.0607C20.8137 9.92215 19.8886 7.91351 18.3718 6.39673C16.855 4.87996 14.8464 3.95479 12.7078 3.78796C10.5693 3.62112 8.44147 4.22359 6.70782 5.48679C4.97417 6.74999 3.74869 8.59085 3.25222 10.6777C2.75575 12.7645 3.02094 14.96 4 16.8685L2 22.7685L7.9 20.7685Z" stroke="#005AEB" stroke-width="1.5" stroke-linecap="round" stroke-linejoin="round"/>
</svg>
