<svg 
    width="24" 
    height="25" 
    viewBox="0 0 24 25" 
    fill="none" 
    xmlns="http://www.w3.org/2000/svg"
>
  <path
    d="M13.234 21.0206L21 13.0686M16 6.76855L7.586 15.3546C7.21105 15.7296 7.00042 16.2382 7.00042 16.7686C7.00042 17.2989 7.21105 17.8075 7.586 18.1826C7.96105 18.5575 8.46967 18.7681 9 18.7681C9.53033 18.7681 10.0389 18.5575 10.414 18.1826L18.828 9.59655C19.5779 8.84644 19.9991 7.82921 19.9991 6.76855C19.9991 5.7079 19.5779 4.69067 18.828 3.94055C18.0779 3.19067 17.0607 2.76941 16 2.76941C14.9393 2.76941 13.9221 3.19067 13.172 3.94055L4.757 12.5256C3.63168 13.6509 2.99949 15.1771 2.99949 16.7686C2.99949 18.36 3.63168 19.8862 4.757 21.0116C5.88231 22.1369 7.40856 22.7691 9 22.7691C10.5914 22.7691 12.1177 22.1369 13.243 21.0116"
    stroke="#005aeb"
    stroke-width="1.5"
    stroke-linecap="round"
    stroke-linejoin="round"
  />
</svg>
