<svg width="24" height="25" viewBox="0 0 24 25" fill="none" xmlns="http://www.w3.org/2000/svg">
<path d="M15 5.76857L19 9.76857M21.174 7.58057C21.7027 7.05199 21.9998 6.33504 21.9999 5.58742C22 4.83981 21.7031 4.12278 21.1745 3.59407C20.6459 3.06536 19.929 2.76828 19.1813 2.76819C18.4337 2.76809 17.7167 3.06499 17.188 3.59357L3.842 16.9426C3.60981 17.1741 3.43811 17.4591 3.342 17.7726L2.021 22.1246C1.99515 22.2111 1.9932 22.3029 2.01535 22.3904C2.03749 22.4779 2.08292 22.5578 2.14679 22.6216C2.21067 22.6853 2.29062 22.7306 2.37815 22.7526C2.46569 22.7747 2.55755 22.7726 2.644 22.7466L6.997 21.4266C7.31017 21.3313 7.59517 21.1607 7.827 20.9296L21.174 7.58057Z" stroke="#1E1E1E" style="stroke:#1E1E1E;stroke:color(display-p3 0.1176 0.1176 0.1176);stroke-opacity:1;" stroke-width="1.5" stroke-linecap="round" stroke-linejoin="round"/>
</svg>
