<svg width="21" height="21" viewBox="0 0 21 21" fill="none" xmlns="http://www.w3.org/2000/svg">
<path fill-rule="evenodd" clip-rule="evenodd" d="M10.9372 3.6326C11.3514 3.6326 11.6872 3.96839 11.6872 4.3826V9.46593H16.7705C17.1848 9.46593 17.5205 9.80172 17.5205 10.2159C17.5205 10.6301 17.1848 10.9659 16.7705 10.9659H11.6872V16.0493C11.6872 16.4635 11.3514 16.7993 10.9372 16.7993C10.523 16.7993 10.1872 16.4635 10.1872 16.0493V10.9659H5.10388C4.68967 10.9659 4.35388 10.6301 4.35388 10.2159C4.35388 9.80172 4.68967 9.46593 5.10388 9.46593H10.1872V4.3826C10.1872 3.96839 10.523 3.6326 10.9372 3.6326Z" fill="#005AEB" style="fill:#005AEB;fill:color(display-p3 0.0000 0.3529 0.9216);fill-opacity:1;"/>
</svg>
