<svg width="24" height="25" viewBox="0 0 24 25" fill="none" xmlns="http://www.w3.org/2000/svg">
<path d="M22.0002 12.7686C22.0002 12.8633 21.9733 12.956 21.9227 13.0361C21.872 13.1161 21.7996 13.1801 21.714 13.2206L3.714 21.7206C3.6241 21.7641 3.52316 21.7797 3.42431 21.7651C3.32546 21.7506 3.23327 21.7067 3.15972 21.639C3.08617 21.5714 3.03466 21.4833 3.01188 21.386C2.9891 21.2887 2.99611 21.1868 3.032 21.0936L5.874 13.4666C6.04167 13.0163 6.04167 12.5208 5.874 12.0706L3.031 4.44356C2.99493 4.3502 2.98783 4.24814 3.01062 4.15069C3.03341 4.05323 3.08503 3.96491 3.15876 3.89723C3.23248 3.82954 3.3249 3.78565 3.42394 3.77126C3.52298 3.75687 3.62406 3.77266 3.714 3.81656L21.714 12.3166C21.7996 12.3571 21.872 12.421 21.9227 12.5011C21.9733 12.5811 22.0002 12.6738 22.0002 12.7686ZM22.0002 12.7686H6" stroke="#1E1E1E" style="stroke:#1E1E1E;stroke:color(display-p3 0.1176 0.1176 0.1176);stroke-opacity:1;" stroke-width="1.5" stroke-linecap="round" stroke-linejoin="round"/>
</svg>
