<svg width="24" height="25" viewBox="0 0 24 25" fill="none" xmlns="http://www.w3.org/2000/svg">
<path d="M12 2.76855V4.76855M12 20.7686V22.7686M4.9 5.66855L6.3 7.06855M17.7 18.4686L19.1 19.8686M2 12.7686H4M20 12.7686H22M6.3 18.4686L4.9 19.8686M19.1 5.66855L17.7 7.06855M12 8.76855C11.4984 9.30475 11.2249 10.0149 11.2371 10.749C11.2493 11.4831 11.5464 12.1838 12.0656 12.703C12.5848 13.2221 13.2854 13.5192 14.0195 13.5315C14.7537 13.5437 15.4638 13.2701 16 12.7686C16 13.5597 15.7654 14.333 15.3259 14.9908C14.8864 15.6486 14.2616 16.1613 13.5307 16.4641C12.7998 16.7668 11.9956 16.846 11.2196 16.6917C10.4437 16.5374 9.73098 16.1564 9.17157 15.597C8.61216 15.0376 8.2312 14.3248 8.07686 13.5489C7.92252 12.773 8.00173 11.9687 8.30448 11.2378C8.60723 10.5069 9.11992 9.8822 9.77772 9.44268C10.4355 9.00315 11.2089 8.76855 12 8.76855Z" stroke="#1E1E1E" style="stroke:#1E1E1E;stroke:color(display-p3 0.1176 0.1176 0.1176);stroke-opacity:1;" stroke-width="1.5" stroke-linecap="round" stroke-linejoin="round"/>
</svg>
