<svg width="24" height="25" viewBox="0 0 24 25" fill="none" xmlns="http://www.w3.org/2000/svg">
  <path d="M7 10.7686V22.7686M15 6.64855L14 10.7686H19.83C20.1405 10.7686 20.4467 10.8408 20.7244 10.9797C21.0021 11.1186 21.2437 11.3202 21.43 11.5686C21.6163 11.8169 21.7422 12.1053 21.7977 12.4108C21.8533 12.7163 21.8369 13.0305 21.75 13.3286L19.42 21.3286C19.2988 21.744 19.0462 22.1089 18.7 22.3686C18.3538 22.6282 17.9327 22.7686 17.5 22.7686H4C3.46957 22.7686 2.96086 22.5578 2.58579 22.1828C2.21071 21.8077 2 21.299 2 20.7686V12.7686C2 12.2381 2.21071 11.7294 2.58579 11.3543C2.96086 10.9793 3.46957 10.7686 4 10.7686H6.76C7.13208 10.7684 7.49674 10.6644 7.81296 10.4683C8.12917 10.2722 8.38442 9.99177 8.55 9.65856L12 2.76855C12.4716 2.77439 12.9357 2.88672 13.3578 3.09715C13.7799 3.30758 14.1489 3.61066 14.4374 3.98376C14.7259 4.35685 14.9263 4.79032 15.0237 5.25176C15.1212 5.7132 15.113 6.19069 15 6.64855Z" stroke="#005AEB" stroke-width="1.5" stroke-linecap="round" stroke-linejoin="round"/>
</svg>
