<svg width="24" height="25" viewBox="0 0 24 25" fill="none" xmlns="http://www.w3.org/2000/svg">
  <path d="M17 14.7686V2.76855M9.00001 18.8886L10 14.7686H4.17001C3.85952 14.7686 3.5533 14.6963 3.27559 14.5574C2.99788 14.4186 2.75631 14.2169 2.57001 13.9686C2.38372 13.7202 2.25782 13.4318 2.20227 13.1263C2.14673 12.8208 2.16308 12.5066 2.25001 12.2086L4.58001 4.20855C4.70118 3.79312 4.95382 3.4282 5.30001 3.16855C5.64621 2.90891 6.06727 2.76855 6.50001 2.76855H20C20.5304 2.76855 21.0392 2.97927 21.4142 3.35434C21.7893 3.72941 22 4.23812 22 4.76855V12.7686C22 13.299 21.7893 13.8077 21.4142 14.1828C21.0392 14.5578 20.5304 14.7686 20 14.7686H17.24C16.8679 14.7688 16.5033 14.8727 16.1871 15.0688C15.8708 15.2649 15.6156 15.5453 15.45 15.8786L12 22.7686C11.5284 22.7627 11.0643 22.6504 10.6422 22.44C10.2201 22.2295 9.85108 21.9264 9.56261 21.5534C9.27413 21.1803 9.0737 20.7468 8.97628 20.2854C8.87886 19.8239 8.88697 19.3464 9.00001 18.8886Z" stroke="#005AEB" stroke-width="1.5" stroke-linecap="round" stroke-linejoin="round"/>
</svg>
