<svg width="20" height="21" viewBox="0 0 20 21" fill="none" xmlns="http://www.w3.org/2000/svg">
<path fill-rule="evenodd" clip-rule="evenodd" d="M6.66669 2.66678C6.16043 2.66678 5.75002 3.07718 5.75002 3.58345V13.5834C5.75002 14.0897 6.16043 14.5001 6.66669 14.5001H8.85603L13.883 9.47312L13.8831 9.47308C14.4003 8.95588 15.1019 8.66532 15.8334 8.66532C16.4743 8.66532 17.0922 8.88839 17.5834 9.29153V3.58345C17.5834 3.07718 17.1729 2.66678 16.6667 2.66678H6.66669ZM17.5834 11.3941L16.7231 10.5338C16.7231 10.5338 16.723 10.5338 16.723 10.5338C16.4871 10.2979 16.167 10.1653 15.8334 10.1653C15.4997 10.1653 15.1797 10.2979 14.9437 10.5338C14.9437 10.5338 14.9437 10.5338 14.9436 10.5338L10.9773 14.5001H16.6667C17.1729 14.5001 17.5834 14.0897 17.5834 13.5834V11.3941ZM4.25002 3.58345C4.25002 2.24876 5.332 1.16678 6.66669 1.16678H16.6667C18.0014 1.16678 19.0834 2.24876 19.0834 3.58345V13.5834C19.0834 14.9181 18.0014 16.0001 16.6667 16.0001H6.66669C5.332 16.0001 4.25002 14.9181 4.25002 13.5834V3.58345ZM1.66669 4.50011C2.0809 4.50011 2.41669 4.8359 2.41669 5.25011V16.9168C2.41669 17.1599 2.51326 17.3931 2.68517 17.565C2.85708 17.7369 3.09024 17.8334 3.33335 17.8334H15C15.4142 17.8334 15.75 18.1692 15.75 18.5834C15.75 18.9977 15.4142 19.3334 15 19.3334H3.33335C2.69241 19.3334 2.07772 19.0788 1.62451 18.6256C1.1713 18.1724 0.916687 17.5577 0.916687 16.9168V5.25011C0.916687 4.8359 1.25247 4.50011 1.66669 4.50011ZM10 6.00011C9.49376 6.00011 9.08335 6.41052 9.08335 6.91678C9.08335 7.42304 9.49376 7.83345 10 7.83345C10.5063 7.83345 10.9167 7.42304 10.9167 6.91678C10.9167 6.41052 10.5063 6.00011 10 6.00011ZM7.58335 6.91678C7.58335 5.58209 8.66533 4.50011 10 4.50011C11.3347 4.50011 12.4167 5.58209 12.4167 6.91678C12.4167 8.25147 11.3347 9.33345 10 9.33345C8.66533 9.33345 7.58335 8.25147 7.58335 6.91678Z" fill="#005AEB" style="fill:#005AEB;fill:color(display-p3 0.0000 0.3529 0.9216);fill-opacity:1;"/>
</svg>
